<svg width="94" height="94" viewBox="0 0 94 94" fill="none" xmlns="http://www.w3.org/2000/svg">
<g id="ci:double-quotes-l" opacity="0.1">
<path id="Vector" d="M71.3641 47.6238C80.1365 47.6238 86.048 53.8363 86.048 63.0412C86.048 71.3245 79.2536 78.2253 70.0511 78.2253C59.9712 78.2253 52.5231 69.9421 52.5231 57.2895C52.5231 28.5313 73.1186 17.028 86.048 15.6455V28.298C77.2813 29.908 67.4249 38.8797 66.9835 48.7787C67.4249 48.5511 69.1738 47.6238 71.3641 47.6238ZM26.6698 47.6238C35.431 47.6238 41.3482 53.8363 41.3482 63.0412C41.3482 71.3245 34.5538 78.2253 25.3512 78.2253C15.2714 78.2253 7.82324 69.9421 7.82324 57.2895C7.82324 28.5313 28.4187 17.028 41.3482 15.6455V28.298C32.5814 29.908 22.7251 38.8797 22.2837 48.7787C22.7251 48.5511 24.4739 47.6238 26.6698 47.6238Z" fill="#393939"/>
</g>
</svg>
