<svg width="24" height="24" viewBox="0 0 24 24" fill="none" xmlns="http://www.w3.org/2000/svg">
<g id="Icon/employee">
<g id="clarityEmployeeLine0">
<path id="Vector" d="M13.5935 11.4441V11.3241L2.00002 14.766H1.85002V14.7663V18.4604C1.85002 18.5617 1.86996 18.6619 1.9087 18.7555C1.94745 18.849 2.00423 18.934 2.07582 19.0056C2.1474 19.0771 2.23239 19.1339 2.32592 19.1727C2.41945 19.2114 2.5197 19.2314 2.62094 19.2314C2.72217 19.2314 2.82242 19.2114 2.91595 19.1727C3.00948 19.1339 3.09447 19.0771 3.16605 19.0056C3.23764 18.934 3.29443 18.849 3.33317 18.7555C3.37191 18.6619 3.39185 18.5617 3.39185 18.4604V14.766H3.39189L3.39181 14.7626C3.38706 14.5501 3.44445 14.3408 3.55694 14.1605C3.66943 13.9801 3.83213 13.8365 4.02507 13.7472C5.89289 12.8848 7.92706 12.4423 9.98435 12.451L9.98517 12.451C11.1383 12.4495 12.2874 12.5857 13.4082 12.8566L13.5935 12.9014V12.7108V11.4441ZM13.5304 17.199H13.3804V17.349V18.2183V18.3683H13.5304H17.3428H17.4928V18.2183V17.349V17.199H17.3428H13.5304ZM7.48691 10.085C8.22634 10.5791 9.09568 10.8428 9.98498 10.8428C11.1775 10.8428 12.3212 10.3691 13.1644 9.52584C14.0077 8.6826 14.4814 7.53892 14.4814 6.3464C14.4814 5.4571 14.2177 4.58777 13.7236 3.84834C13.2295 3.10891 12.5273 2.53259 11.7057 2.19227C10.8841 1.85195 9.97999 1.7629 9.10777 1.9364C8.23556 2.10989 7.43438 2.53813 6.80554 3.16697C6.17671 3.7958 5.74847 4.59698 5.57498 5.4692C5.40148 6.34141 5.49053 7.24549 5.83085 8.0671C6.17117 8.88871 6.74748 9.59095 7.48691 10.085ZM8.34351 3.93944C8.82938 3.61479 9.40062 3.4415 9.98498 3.4415C10.373 3.4415 10.7572 3.51793 11.1156 3.66641C11.4741 3.81489 11.7998 4.03252 12.0742 4.30688C12.3485 4.58124 12.5662 4.90694 12.7146 5.26541C12.8631 5.62387 12.9396 6.00808 12.9396 6.39608C12.9396 6.98043 12.7663 7.55167 12.4416 8.03755C12.117 8.52342 11.6555 8.90212 11.1156 9.12574C10.5758 9.34937 9.9817 9.40788 9.40857 9.29388C8.83544 9.17987 8.30899 8.89848 7.89578 8.48527C7.48258 8.07207 7.20118 7.54562 7.08718 6.97248C6.97318 6.39935 7.03169 5.80529 7.25531 5.26541C7.47894 4.72553 7.85763 4.26409 8.34351 3.93944Z" fill="#393939" stroke="#393939" stroke-width="0.3"/>
<path id="Vector_2" d="M17.1687 13.5106H17.0187V13.6606V14.9024V15.0524H17.1687H19.608V19.9495H11.1096V15.0524H14.7214V15.1632C14.7214 15.3677 14.8026 15.5638 14.9472 15.7083C15.0917 15.8529 15.2878 15.9341 15.4923 15.9341C15.6967 15.9341 15.8928 15.8529 16.0374 15.7083C16.182 15.5638 16.2632 15.3677 16.2632 15.1632V12.7479C16.2632 12.5434 16.182 12.3473 16.0374 12.2027L15.933 12.3071L16.0374 12.2027C15.8928 12.0582 15.6967 11.977 15.4923 11.977C15.2878 11.977 15.0917 12.0582 14.9472 12.2027C14.8026 12.3473 14.7214 12.5434 14.7214 12.7479V13.5106H10.3387C10.1342 13.5106 9.93814 13.5918 9.79357 13.7364C9.64899 13.881 9.56777 14.0771 9.56777 14.2815V20.7204C9.56777 20.9249 9.64899 21.121 9.79357 21.2655C9.93814 21.4101 10.1342 21.4913 10.3387 21.4913H20.3789C20.5833 21.4913 20.7794 21.4101 20.924 21.2655C21.0686 21.121 21.1498 20.9249 21.1498 20.7204V14.2815C21.1498 14.0771 21.0686 13.881 20.924 13.7364C20.7794 13.5918 20.5833 13.5106 20.3789 13.5106H17.1687Z" fill="#393939" stroke="#393939" stroke-width="0.3"/>
</g>
</g>
</svg>
