<svg width="17" height="17" viewBox="0 0 17 17" fill="none" xmlns="http://www.w3.org/2000/svg">
<g id="devicon:google" clip-path="url(#clip0_5305_8813)">
<path id="Vector" d="M5.67673 1.12739C4.04854 1.69223 2.64438 2.7643 1.67051 4.18615C0.696649 5.608 0.204406 7.30468 0.266089 9.02696C0.327773 10.7492 0.94013 12.4064 2.01322 13.7549C3.0863 15.1034 4.56355 16.0723 6.22799 16.5192C7.57738 16.8674 8.99115 16.8827 10.3478 16.5638C11.5767 16.2877 12.7129 15.6973 13.6451 14.8502C14.6153 13.9416 15.3195 12.7858 15.6821 11.507C16.076 10.1163 16.1461 8.65391 15.887 7.23193H8.30952V10.3752H12.6979C12.6102 10.8766 12.4223 11.355 12.1453 11.782C11.8684 12.2091 11.5081 12.5758 11.0862 12.8603C10.5504 13.2149 9.94626 13.4535 9.31272 13.5605C8.67738 13.6787 8.02568 13.6787 7.39033 13.5605C6.74634 13.4275 6.13714 13.1617 5.60162 12.7801C4.74119 12.1711 4.09513 11.3058 3.75562 10.3078C3.41047 9.29103 3.41047 8.18882 3.75562 7.17209C3.99729 6.45943 4.3968 5.81055 4.92433 5.27389C5.52802 4.64848 6.29232 4.20142 7.13337 3.98179C7.97441 3.76215 8.8597 3.77841 9.69211 4.0288C10.3424 4.22832 10.9371 4.57709 11.4286 5.04728C11.9234 4.55501 12.4174 4.06147 12.9105 3.56666C13.1651 3.30058 13.4427 3.04723 13.6935 2.77479C12.943 2.07651 12.0622 1.53313 11.1014 1.17577C9.35181 0.540474 7.43741 0.523401 5.67673 1.12739Z" fill="white"/>
<path id="Vector_2" d="M5.67677 1.12801C7.4373 0.523609 9.35171 0.540233 11.1015 1.17511C12.0624 1.53491 12.9428 2.0809 13.6922 2.78177C13.4376 3.05422 13.169 3.30884 12.9093 3.57364C12.4153 4.06676 11.9218 4.55818 11.4287 5.0479C10.9371 4.57771 10.3424 4.22894 9.69215 4.02942C8.86001 3.77816 7.97475 3.76095 7.13348 3.97969C6.29222 4.19843 5.52745 4.64466 4.92309 5.26942C4.39556 5.80608 3.99605 6.45496 3.75438 7.16762L1.11523 5.12429C2.05989 3.25099 3.6955 1.81806 5.67677 1.12801Z" fill="#E33629"/>
<path id="Vector_3" d="M0.415003 7.14924C0.55675 6.44619 0.792257 5.76536 1.11521 5.125L3.75436 7.17343C3.40921 8.19015 3.40921 9.29236 3.75436 10.3091C2.87507 10.9881 1.99535 11.6705 1.11521 12.3562C0.30698 10.7474 0.0604842 8.9144 0.415003 7.14924Z" fill="#F8BD00"/>
<path id="Vector_4" d="M8.30959 7.23145H15.8871C16.1462 8.65343 16.0761 10.1159 15.6821 11.5065C15.3196 12.7853 14.6154 13.9412 13.6452 14.8497C12.7935 14.1851 11.9379 13.5257 11.0862 12.8611C11.5085 12.5763 11.8689 12.2092 12.1458 11.7817C12.4228 11.3542 12.6106 10.8753 12.698 10.3735H8.30959C8.30831 9.32698 8.30959 8.27921 8.30959 7.23145Z" fill="#587DBD"/>
<path id="Vector_5" d="M1.11395 12.3557C1.99409 11.6768 2.87381 10.9944 3.7531 10.3086C4.09328 11.307 4.74027 12.1723 5.60165 12.781C6.13884 13.1608 6.74935 13.4244 7.39418 13.555C8.02953 13.6732 8.68122 13.6732 9.31657 13.555C9.9501 13.4479 10.5542 13.2094 11.09 12.8548C11.9417 13.5194 12.7972 14.1788 13.649 14.8434C12.7169 15.6909 11.5807 16.2819 10.3516 16.5583C8.995 16.8772 7.58123 16.8619 6.23184 16.5137C5.1646 16.2288 4.16772 15.7264 3.30369 15.0382C2.38926 14.312 1.64234 13.397 1.11395 12.3557Z" fill="#319F43"/>
</g>
<defs>
<clipPath id="clip0_5305_8813">
<rect width="16.2958" height="16.2958" fill="white" transform="translate(0 0.592773)"/>
</clipPath>
</defs>
</svg>
