<svg width="51" height="50" viewBox="0 0 51 50" fill="none" xmlns="http://www.w3.org/2000/svg">
<g id="Social Media / Instagram">
<rect id="Logo Container" x="0.792969" width="49.5237" height="49.5237" rx="10.8175" fill="url(#paint0_linear_4159_55464)"/>
<g id="Group 15">
<path id="Vector" d="M21.4353 24.8255C21.4353 22.5443 23.2836 20.6945 25.5641 20.6945C27.8447 20.6945 29.6939 22.5443 29.6939 24.8255C29.6939 27.1067 27.8447 28.9565 25.5641 28.9565C23.2836 28.9565 21.4353 27.1067 21.4353 24.8255ZM19.2029 24.8255C19.2029 28.3399 22.0508 31.1886 25.5641 31.1886C29.0775 31.1886 31.9254 28.3399 31.9254 24.8255C31.9254 21.3112 29.0775 18.4624 25.5641 18.4624C22.0508 18.4624 19.2029 21.3112 19.2029 24.8255ZM30.6906 18.2101C30.6905 18.5042 30.7776 18.7918 30.9408 19.0364C31.1041 19.281 31.3362 19.4717 31.6078 19.5843C31.8794 19.697 32.1783 19.7265 32.4667 19.6693C32.7551 19.612 33.02 19.4705 33.228 19.2626C33.436 19.0547 33.5777 18.7898 33.6352 18.5014C33.6926 18.213 33.6633 17.914 33.5509 17.6422C33.4385 17.3704 33.248 17.1381 33.0036 16.9746C32.7592 16.8111 32.4718 16.7238 32.1778 16.7237H32.1772C31.7831 16.7239 31.4052 16.8805 31.1265 17.1592C30.8477 17.4379 30.691 17.8159 30.6906 18.2101ZM20.5592 34.9123C19.3514 34.8572 18.6949 34.656 18.2587 34.486C17.6803 34.2607 17.2676 33.9925 16.8337 33.5591C16.3998 33.1256 16.1312 32.7132 15.9071 32.1347C15.737 31.6985 15.5358 31.0416 15.4809 29.8334C15.4208 28.5272 15.4089 28.1349 15.4089 24.8256C15.4089 21.5164 15.4218 21.1251 15.4809 19.8178C15.5359 18.6096 15.7386 17.954 15.9071 17.5166C16.1322 16.938 16.4004 16.5252 16.8337 16.0912C17.267 15.6572 17.6793 15.3885 18.2587 15.1643C18.6947 14.9942 19.3514 14.7929 20.5592 14.738C21.8651 14.6779 22.2573 14.6659 25.5641 14.6659C28.8709 14.6659 29.2636 14.6789 30.5705 14.738C31.7783 14.793 32.4337 14.9957 32.8711 15.1643C33.4495 15.3885 33.8621 15.6578 34.296 16.0912C34.7299 16.5246 34.9975 16.938 35.2227 17.5166C35.3928 17.9528 35.5939 18.6096 35.6488 19.8178C35.7089 21.1251 35.7209 21.5164 35.7209 24.8256C35.7209 28.1349 35.7089 28.5261 35.6488 29.8334C35.5938 31.0416 35.3917 31.6983 35.2227 32.1347C34.9975 32.7132 34.7293 33.126 34.296 33.5591C33.8627 33.9921 33.4495 34.2607 32.8711 34.486C32.435 34.6561 31.7783 34.8573 30.5705 34.9123C29.2647 34.9723 28.8724 34.9843 25.5641 34.9843C22.2558 34.9843 21.8647 34.9723 20.5592 34.9123ZM20.4567 12.5086C19.1378 12.5687 18.2367 12.7779 17.4497 13.0842C16.6346 13.4006 15.9446 13.825 15.2551 14.5136C14.5657 15.2021 14.1425 15.8934 13.8262 16.7087C13.52 17.4964 13.3109 18.3974 13.2508 19.7166C13.1898 21.0379 13.1758 21.4603 13.1758 24.8255C13.1758 28.1908 13.1898 28.6132 13.2508 29.9345C13.3109 31.2538 13.52 32.1546 13.8262 32.9423C14.1425 33.7571 14.5658 34.4492 15.2551 35.1375C15.9445 35.8258 16.6346 36.2496 17.4497 36.5668C18.2382 36.8732 19.1378 37.0823 20.4567 37.1424C21.7783 37.2025 22.1999 37.2174 25.5641 37.2174C28.9284 37.2174 29.3507 37.2035 30.6716 37.1424C31.9905 37.0823 32.8911 36.8732 33.6786 36.5668C34.4932 36.2496 35.1836 35.8261 35.8731 35.1375C36.5626 34.4489 36.9849 33.7571 37.302 32.9423C37.6083 32.1546 37.8184 31.2537 37.8775 29.9345C37.9375 28.6122 37.9515 28.1908 37.9515 24.8255C37.9515 21.4603 37.9375 21.0379 37.8775 19.7166C37.8174 18.3973 37.6083 17.4959 37.302 16.7087C36.9849 15.8939 36.5615 15.2032 35.8731 14.5136C35.1847 13.8239 34.4932 13.4006 33.6796 13.0842C32.8911 12.7779 31.9904 12.5677 30.6726 12.5086C29.3517 12.4486 28.9294 12.4336 25.5651 12.4336C22.2008 12.4336 21.7783 12.4476 20.4567 12.5086Z" fill="white"/>
</g>
</g>
<defs>
<linearGradient id="paint0_linear_4159_55464" x1="49.3648" y1="49.5237" x2="-0.158875" y2="-1.33304e-06" gradientUnits="userSpaceOnUse">
<stop stop-color="#FBE18A"/>
<stop offset="0.21" stop-color="#FCBB45"/>
<stop offset="0.38" stop-color="#F75274"/>
<stop offset="0.52" stop-color="#D53692"/>
<stop offset="0.74" stop-color="#8F39CE"/>
<stop offset="1" stop-color="#5B4FE9"/>
</linearGradient>
</defs>
</svg>
