<svg width="25" height="24" viewBox="0 0 25 24" fill="none" xmlns="http://www.w3.org/2000/svg">
<g id="inventory">
<g id="Vector">
<path d="M4.97168 6H6.97168V7C6.97168 8.1 7.87168 9 8.97168 9H14.9717C16.0717 9 16.9717 8.1 16.9717 7V6H18.9717V11H20.9717V6C20.9717 4.9 20.0717 4 18.9717 4H14.7917C14.3717 2.84 13.2717 2 11.9717 2C10.6717 2 9.57168 2.84 9.15168 4H4.97168C3.87168 4 2.97168 4.9 2.97168 6V20C2.97168 21.1 3.87168 22 4.97168 22H10.9717V20H4.97168V6ZM11.9717 4C12.5217 4 12.9717 4.45 12.9717 5C12.9717 5.55 12.5217 6 11.9717 6C11.4217 6 10.9717 5.55 10.9717 5C10.9717 4.45 11.4217 4 11.9717 4Z" fill="#61A58D"/>
<path d="M21.7217 13.25C21.3117 12.84 20.6317 12.84 20.2217 13.25L15.4817 18L13.2217 15.75C12.8117 15.34 12.1417 15.34 11.7217 15.75C11.3117 16.16 11.3117 16.84 11.7217 17.25L14.7717 20.29C15.1617 20.68 15.7917 20.68 16.1817 20.29L21.7117 14.75C22.1317 14.34 22.1317 13.66 21.7217 13.25Z" fill="#61A58D"/>
</g>
</g>
</svg>
