<svg width="17" height="17" viewBox="0 0 17 17" fill="none" xmlns="http://www.w3.org/2000/svg">
<g id="logos:facebook" clip-path="url(#clip0_5305_8808)">
<path id="Vector" d="M16.2958 8.74065C16.2958 4.24073 12.6478 0.592773 8.14788 0.592773C3.64796 0.592773 0 4.24067 0 8.74065C0 12.8075 2.97958 16.1783 6.87477 16.7895V11.0959H4.80597V8.74065H6.87477V6.94557C6.87477 4.90351 8.09122 3.77554 9.95231 3.77554C10.8438 3.77554 11.7762 3.93468 11.7762 3.93468V5.93982H10.7488C9.73658 5.93982 9.42098 6.5679 9.42098 7.21229V8.74065H11.6807L11.3195 11.0959H9.42098V16.7895C13.3162 16.1783 16.2958 12.8075 16.2958 8.74065Z" fill="#1877F2"/>
<path id="Vector_2" d="M11.3195 11.0957L11.6807 8.7405H9.42098V7.21214C9.42098 6.56769 9.73664 5.93967 10.7488 5.93967H11.7762V3.93453C11.7762 3.93453 10.8438 3.77539 9.95231 3.77539C8.09122 3.77539 6.87477 4.90336 6.87477 6.94542V8.7405H4.80597V11.0957H6.87477V16.7894C7.29592 16.8554 7.72158 16.8885 8.14787 16.8884C8.57417 16.8885 8.99982 16.8554 9.42098 16.7894V11.0957H11.3195Z" fill="white"/>
</g>
<defs>
<clipPath id="clip0_5305_8808">
<rect width="16.2958" height="16.2958" fill="white" transform="translate(0 0.592773)"/>
</clipPath>
</defs>
</svg>
