<svg width="199" height="121" viewBox="0 0 199 121" fill="none" xmlns="http://www.w3.org/2000/svg">
<path d="M129.529 41.9873C129.529 51.815 124.387 60.4409 116.645 65.3262L114.702 59.3432L108.407 67.7402L102.112 59.3432L96.0791 67.3916L90.0467 59.3432L87.9682 65.7398C79.8496 60.9456 74.3998 52.1012 74.3998 41.9873C74.3998 26.767 86.743 14.4238 101.971 14.4238C117.199 14.4238 129.535 26.767 129.535 41.9873H129.529Z" fill="white"/>
<path d="M108.664 52.5315C101.448 56.2076 92.8269 53.6465 88.9853 46.1056L88.9486 46.0334C85.1989 38.6729 87.9227 30.0142 95.5719 26.1174C100.731 23.489 105.154 23.9628 108.972 25.9262L105.781 32.6869C103.418 31.6181 101.171 31.309 98.7531 32.5405C95.2172 34.3419 94.2532 38.6049 96.128 42.2851L96.1648 42.3573C98.0948 46.1458 102.092 47.8362 105.628 46.0348C108.261 44.693 109.188 42.6759 109.766 40.0638L116.945 41.1326C116.237 45.6291 114.257 49.6824 108.664 52.5315Z" fill="#61A58D"/>
<path d="M105.389 0C106.518 0.788196 108.935 2.71056 110.423 6.12348C111.539 8.68317 111.653 10.9879 111.619 12.3068C110.48 11.901 109.042 11.4978 107.353 11.2741C105.121 10.9775 103.199 11.0894 101.763 11.2871C102.434 10.9307 104.5 9.72628 105.605 7.1666C107.109 3.68085 105.623 0.489048 105.387 0.00260385L105.389 0Z" fill="white"/>
<path d="M69.8137 13.8639C69.5172 15.2088 69.0359 18.2601 70.2507 21.7797C71.1612 24.4174 72.6361 26.1941 73.5544 27.141C74.1188 26.0719 74.9045 24.8024 75.997 23.494C77.4381 21.7667 78.9313 20.5467 80.1201 19.7195C79.384 19.912 77.048 20.4218 74.5013 19.2851C71.0363 17.7373 69.9672 14.3816 69.8137 13.8613V13.8639Z" fill="white"/>
<path d="M40.5952 81.8789H36.8231C36.7542 81.3909 36.6135 80.9574 36.4011 80.5785C36.1887 80.1938 35.9159 79.8666 35.5829 79.5967C35.2499 79.3269 34.8652 79.1202 34.4289 78.9766C33.9983 78.8331 33.5304 78.7613 33.0251 78.7613C32.1122 78.7613 31.317 78.9881 30.6395 79.4417C29.962 79.8895 29.4367 80.544 29.0635 81.4053C28.6903 82.2608 28.5037 83.3 28.5037 84.5229C28.5037 85.7803 28.6903 86.8367 29.0635 87.6922C29.4424 88.5477 29.9706 89.1936 30.6481 89.6299C31.3256 90.0663 32.1093 90.2845 32.9993 90.2845C33.4988 90.2845 33.961 90.2184 34.3858 90.0864C34.8164 89.9543 35.1983 89.762 35.5313 89.5094C35.8643 89.251 36.1399 88.9381 36.358 88.5706C36.582 88.2032 36.737 87.784 36.8231 87.3132L40.5952 87.3305C40.4976 88.14 40.2536 88.9209 39.8632 89.673C39.4785 90.4194 38.9589 91.0883 38.3044 91.6796C37.6556 92.2653 36.8805 92.7303 35.9791 93.0748C35.0834 93.4136 34.0701 93.5829 32.939 93.5829C31.3658 93.5829 29.9592 93.227 28.719 92.515C27.4846 91.8031 26.5085 90.7725 25.7908 89.4232C25.0789 88.074 24.7229 86.4405 24.7229 84.5229C24.7229 82.5995 25.0846 80.9632 25.8081 79.6139C26.5315 78.2647 27.5133 77.237 28.7534 76.5308C29.9936 75.8188 31.3888 75.4628 32.939 75.4628C33.961 75.4628 34.9083 75.6064 35.781 75.8935C36.6595 76.1805 37.4374 76.5997 38.1149 77.1508C38.7924 77.6963 39.3436 78.3652 39.7685 79.1575C40.1991 79.9498 40.4747 80.857 40.5952 81.8789ZM43.2693 93.3418V75.704H50.228C51.56 75.704 52.6968 75.9423 53.6384 76.4188C54.5858 76.8896 55.3063 77.5585 55.8001 78.4254C56.2996 79.2867 56.5494 80.3 56.5494 81.4656C56.5494 82.6368 56.2967 83.6444 55.7915 84.4884C55.2862 85.3267 54.5542 85.9697 53.5954 86.4176C52.6423 86.8654 51.4883 87.0893 50.1333 87.0893H45.4741V84.0923H49.5304C50.2424 84.0923 50.8337 83.9947 51.3045 83.7995C51.7753 83.6043 52.1256 83.3114 52.3552 82.921C52.5906 82.5306 52.7083 82.0454 52.7083 81.4656C52.7083 80.8799 52.5906 80.3862 52.3552 79.9843C52.1256 79.5824 51.7725 79.2781 51.2959 79.0714C50.8251 78.8589 50.2309 78.7527 49.5132 78.7527H46.9984V93.3418H43.2693ZM52.7944 85.3152L57.1781 93.3418H53.0614L48.7725 85.3152H52.7944ZM59.1847 75.704H63.7836L68.6409 87.5544H68.8476L73.7049 75.704H78.3038V93.3418H74.6867V81.8617H74.5403L69.9758 93.2557H67.5127L62.9482 81.8187H62.8018V93.3418H59.1847V75.704ZM81.9791 75.704H84.5283L90.5224 90.3447H90.7291L96.7232 75.704H99.2724V93.3418H97.2744V79.9412H97.1021L91.5903 93.3418H89.6612L84.1493 79.9412H83.9771V93.3418H81.9791V75.704ZM108.653 93.6174C107.459 93.6174 106.411 93.3332 105.51 92.7648C104.614 92.1964 103.914 91.4012 103.408 90.3792C102.909 89.3572 102.659 88.163 102.659 86.7965C102.659 85.4186 102.909 84.2157 103.408 83.188C103.914 82.1603 104.614 81.3622 105.51 80.7938C106.411 80.2254 107.459 79.9412 108.653 79.9412C109.847 79.9412 110.892 80.2254 111.788 80.7938C112.69 81.3622 113.39 82.1603 113.889 83.188C114.395 84.2157 114.647 85.4186 114.647 86.7965C114.647 88.163 114.395 89.3572 113.889 90.3792C113.39 91.4012 112.69 92.1964 111.788 92.7648C110.892 93.3332 109.847 93.6174 108.653 93.6174ZM108.653 91.7916C109.56 91.7916 110.307 91.5591 110.892 91.094C111.478 90.6289 111.912 90.0175 112.193 89.2596C112.474 88.5017 112.615 87.6807 112.615 86.7965C112.615 85.9123 112.474 85.0884 112.193 84.3248C111.912 83.5612 111.478 82.944 110.892 82.4732C110.307 82.0024 109.56 81.767 108.653 81.767C107.746 81.767 107 82.0024 106.414 82.4732C105.828 82.944 105.395 83.5612 105.114 84.3248C104.832 85.0884 104.692 85.9123 104.692 86.7965C104.692 87.6807 104.832 88.5017 105.114 89.2596C105.395 90.0175 105.828 90.6289 106.414 91.094C107 91.5591 107.746 91.7916 108.653 91.7916ZM119.782 85.3841V93.3418H117.75V80.1134H119.713V82.1804H119.886C120.196 81.5086 120.667 80.9689 121.298 80.5613C121.93 80.1479 122.745 79.9412 123.744 79.9412C124.64 79.9412 125.423 80.1249 126.095 80.4924C126.767 80.8541 127.289 81.4053 127.663 82.1459C128.036 82.8808 128.222 83.8109 128.222 84.9363V93.3418H126.19V85.0741C126.19 84.0349 125.92 83.2253 125.38 82.6454C124.841 82.0598 124.1 81.767 123.158 81.767C122.51 81.767 121.93 81.9076 121.419 82.189C120.913 82.4703 120.514 82.8808 120.222 83.4205C119.929 83.9602 119.782 84.6148 119.782 85.3841ZM141.306 83.076L139.481 83.5928C139.366 83.2885 139.196 82.9928 138.973 82.7057C138.754 82.4129 138.456 82.1718 138.077 81.9823C137.698 81.7928 137.213 81.6981 136.621 81.6981C135.812 81.6981 135.137 81.8847 134.598 82.2579C134.064 82.6253 133.797 83.0933 133.797 83.6617C133.797 84.1669 133.98 84.566 134.348 84.8588C134.715 85.1516 135.289 85.3956 136.07 85.5908L138.034 86.0731C139.217 86.3602 140.098 86.7994 140.678 87.3908C141.258 87.9764 141.548 88.7314 141.548 89.6558C141.548 90.4136 141.329 91.0911 140.893 91.6883C140.462 92.2854 139.86 92.7562 139.085 93.1007C138.309 93.4451 137.408 93.6174 136.38 93.6174C135.031 93.6174 133.914 93.3246 133.03 92.7389C132.146 92.1533 131.586 91.2978 131.351 90.1725L133.28 89.6902C133.464 90.4022 133.811 90.9361 134.322 91.2921C134.839 91.6481 135.513 91.826 136.346 91.826C137.293 91.826 138.045 91.6251 138.602 91.2232C139.165 90.8155 139.446 90.3275 139.446 89.7591C139.446 89.2998 139.285 88.9151 138.964 88.6051C138.642 88.2893 138.149 88.0539 137.483 87.8989L135.278 87.3821C134.066 87.0951 133.177 86.6501 132.608 86.0473C132.045 85.4387 131.764 84.6779 131.764 83.765C131.764 83.0186 131.974 82.3584 132.393 81.7842C132.818 81.2101 133.395 80.7594 134.124 80.4321C134.859 80.1048 135.691 79.9412 136.621 79.9412C137.93 79.9412 138.958 80.2283 139.705 80.8024C140.457 81.3766 140.991 82.1344 141.306 83.076ZM150.36 80.1134V81.8359H143.505V80.1134H150.36ZM145.503 76.9441H147.535V89.5524C147.535 90.1266 147.618 90.5572 147.785 90.8443C147.957 91.1256 148.175 91.3151 148.44 91.4127C148.709 91.5045 148.994 91.5505 149.292 91.5505C149.516 91.5505 149.7 91.539 149.843 91.516C149.987 91.4873 150.102 91.4643 150.188 91.4471L150.601 93.2729C150.463 93.3246 150.271 93.3762 150.024 93.4279C149.777 93.4853 149.464 93.514 149.085 93.514C148.511 93.514 147.949 93.3906 147.397 93.1437C146.852 92.8968 146.398 92.5208 146.037 92.0155C145.681 91.5103 145.503 90.873 145.503 90.1036V76.9441ZM158.822 93.6174C157.547 93.6174 156.447 93.3361 155.523 92.7734C154.604 92.205 153.895 91.4127 153.396 90.3964C152.902 89.3744 152.655 88.186 152.655 86.831C152.655 85.476 152.902 84.2817 153.396 83.2483C153.895 82.2091 154.59 81.3995 155.48 80.8196C156.376 80.234 157.421 79.9412 158.615 79.9412C159.304 79.9412 159.984 80.056 160.656 80.2857C161.328 80.5153 161.939 80.8885 162.49 81.4053C163.042 81.9163 163.481 82.5938 163.808 83.4378C164.135 84.2817 164.299 85.321 164.299 86.5554V87.4166H154.102V85.6597H162.232C162.232 84.9133 162.083 84.2473 161.784 83.6617C161.491 83.076 161.072 82.6139 160.527 82.2751C159.987 81.9364 159.35 81.767 158.615 81.767C157.805 81.767 157.105 81.9679 156.513 82.3698C155.928 82.766 155.477 83.2827 155.161 83.92C154.846 84.5573 154.688 85.2406 154.688 85.9697V87.141C154.688 88.14 154.86 88.9869 155.204 89.6816C155.555 90.3706 156.04 90.8959 156.66 91.2576C157.28 91.6136 158.001 91.7916 158.822 91.7916C159.355 91.7916 159.838 91.717 160.268 91.5677C160.705 91.4127 161.081 91.183 161.397 90.8787C161.712 90.5687 161.956 90.184 162.129 89.7247L164.092 90.2758C163.886 90.9419 163.538 91.5275 163.05 92.0327C162.562 92.5322 161.959 92.9227 161.242 93.204C160.524 93.4796 159.717 93.6174 158.822 93.6174ZM167.391 93.3418V80.1134H169.354V82.1115H169.492C169.733 81.4569 170.17 80.9259 170.801 80.5182C171.433 80.1106 172.145 79.9067 172.937 79.9067C173.086 79.9067 173.273 79.9096 173.497 79.9154C173.721 79.9211 173.89 79.9297 174.005 79.9412V82.0081C173.936 81.9909 173.778 81.9651 173.531 81.9306C173.29 81.8904 173.035 81.8703 172.765 81.8703C172.122 81.8703 171.548 82.0053 171.042 82.2751C170.543 82.5392 170.147 82.9067 169.854 83.3775C169.567 83.8425 169.423 84.3736 169.423 84.9707V93.3418H167.391Z" fill="white"/>
<path d="M10.5087 109.138H9.13414C9.05285 108.743 8.91059 108.396 8.70736 108.096C8.50783 107.797 8.26395 107.546 7.97574 107.343C7.69122 107.136 7.3753 106.981 7.02796 106.877C6.68063 106.774 6.31852 106.722 5.94162 106.722C5.25435 106.722 4.63173 106.896 4.07378 107.243C3.51952 107.59 3.07797 108.102 2.74911 108.778C2.42395 109.454 2.26136 110.284 2.26136 111.267C2.26136 112.25 2.42395 113.079 2.74911 113.755C3.07797 114.432 3.51952 114.943 4.07378 115.291C4.63173 115.638 5.25435 115.812 5.94162 115.812C6.31852 115.812 6.68063 115.76 7.02796 115.657C7.3753 115.553 7.69122 115.4 7.97574 115.196C8.26395 114.99 8.50783 114.736 8.70736 114.437C8.91059 114.134 9.05285 113.787 9.13414 113.395H10.5087C10.4052 113.975 10.2168 114.494 9.94335 114.953C9.66992 115.411 9.32997 115.801 8.92352 116.122C8.51706 116.44 8.06073 116.682 7.55451 116.848C7.05198 117.014 6.51435 117.098 5.94162 117.098C4.97352 117.098 4.11258 116.861 3.35879 116.388C2.605 115.915 2.01195 115.243 1.57963 114.371C1.14731 113.499 0.93115 112.464 0.93115 111.267C0.93115 110.07 1.14731 109.035 1.57963 108.163C2.01195 107.291 2.605 106.618 3.35879 106.145C4.11258 105.673 4.97352 105.436 5.94162 105.436C6.51435 105.436 7.05198 105.519 7.55451 105.685C8.06073 105.852 8.51706 106.096 8.92352 106.417C9.32997 106.735 9.66992 107.123 9.94335 107.581C10.2168 108.035 10.4052 108.555 10.5087 109.138ZM16.0111 117.12C15.2425 117.12 14.5682 116.937 13.988 116.571C13.4116 116.205 12.9608 115.693 12.6356 115.036C12.3142 114.378 12.1534 113.609 12.1534 112.73C12.1534 111.843 12.3142 111.069 12.6356 110.408C12.9608 109.746 13.4116 109.233 13.988 108.867C14.5682 108.501 15.2425 108.318 16.0111 108.318C16.7796 108.318 17.4521 108.501 18.0286 108.867C18.6087 109.233 19.0595 109.746 19.3809 110.408C19.7061 111.069 19.8687 111.843 19.8687 112.73C19.8687 113.609 19.7061 114.378 19.3809 115.036C19.0595 115.693 18.6087 116.205 18.0286 116.571C17.4521 116.937 16.7796 117.12 16.0111 117.12ZM16.0111 115.945C16.5949 115.945 17.0752 115.795 17.4521 115.496C17.829 115.196 18.108 114.803 18.2891 114.315C18.4701 113.827 18.5606 113.299 18.5606 112.73C18.5606 112.161 18.4701 111.631 18.2891 111.139C18.108 110.648 17.829 110.251 17.4521 109.948C17.0752 109.645 16.5949 109.493 16.0111 109.493C15.4272 109.493 14.9469 109.645 14.57 109.948C14.1931 110.251 13.9141 110.648 13.7331 111.139C13.552 111.631 13.4615 112.161 13.4615 112.73C13.4615 113.299 13.552 113.827 13.7331 114.315C13.9141 114.803 14.1931 115.196 14.57 115.496C14.9469 115.795 15.4272 115.945 16.0111 115.945ZM23.1734 111.821V116.942H21.8654V108.429H23.1291V109.759H23.2399C23.4395 109.327 23.7425 108.98 24.1489 108.717C24.5554 108.451 25.0801 108.318 25.723 108.318C26.2994 108.318 26.8038 108.436 27.2361 108.673C27.6685 108.906 28.0047 109.26 28.2449 109.737C28.4851 110.21 28.6051 110.809 28.6051 111.533V116.942H27.2971V111.622C27.2971 110.953 27.1234 110.432 26.7761 110.059C26.4288 109.682 25.9521 109.493 25.3461 109.493C24.9286 109.493 24.5554 109.584 24.2265 109.765C23.9014 109.946 23.6446 110.21 23.4561 110.557C23.2677 110.905 23.1734 111.326 23.1734 111.821ZM36.804 120.135V115.634H36.6931C36.5971 115.79 36.4603 115.985 36.283 116.222C36.1056 116.455 35.8525 116.663 35.5236 116.848C35.1948 117.029 34.7569 117.12 34.2101 117.12C33.5006 117.12 32.8743 116.941 32.3311 116.582C31.788 116.22 31.363 115.71 31.0563 115.052C30.7497 114.391 30.5963 113.609 30.5963 112.708C30.5963 111.814 30.7497 111.038 31.0563 110.38C31.363 109.722 31.7898 109.214 32.3367 108.856C32.8835 108.497 33.5154 108.318 34.2322 108.318C34.7865 108.318 35.2243 108.411 35.5458 108.595C35.871 108.776 36.1185 108.983 36.2885 109.216C36.4622 109.445 36.5971 109.634 36.6931 109.781H36.8483V108.429H38.112V120.135H36.804ZM34.3874 115.945C34.9121 115.945 35.3555 115.808 35.7176 115.535C36.0797 115.257 36.355 114.875 36.5435 114.387C36.7319 113.896 36.8261 113.329 36.8261 112.686C36.8261 112.05 36.7338 111.494 36.549 111.017C36.3643 110.537 36.0908 110.164 35.7287 109.898C35.3666 109.628 34.9195 109.493 34.3874 109.493C33.8332 109.493 33.3713 109.635 33.0018 109.92C32.636 110.201 32.3607 110.583 32.1759 111.067C31.9949 111.548 31.9044 112.087 31.9044 112.686C31.9044 113.292 31.9967 113.842 32.1815 114.337C32.3699 114.829 32.6471 115.22 33.0129 115.512C33.3824 115.801 33.8406 115.945 34.3874 115.945ZM45.8716 113.462V108.429H47.1796V116.942H45.8716V115.501H45.7829C45.5834 115.934 45.273 116.301 44.8518 116.604C44.4305 116.904 43.8984 117.053 43.2555 117.053C42.7234 117.053 42.2505 116.937 41.8366 116.704C41.4228 116.468 41.0976 116.113 40.8611 115.64C40.6246 115.163 40.5064 114.563 40.5064 113.839V108.429H41.8144V113.75C41.8144 114.371 41.9881 114.866 42.3354 115.235C42.6865 115.605 43.1336 115.79 43.6767 115.79C44.0019 115.79 44.3326 115.706 44.6689 115.54C45.0088 115.374 45.2933 115.119 45.5224 114.775C45.7552 114.432 45.8716 113.994 45.8716 113.462ZM53.1448 117.12C52.3245 117.12 51.6169 116.939 51.022 116.577C50.4308 116.211 49.9745 115.701 49.653 115.047C49.3352 114.389 49.1763 113.624 49.1763 112.752C49.1763 111.88 49.3352 111.112 49.653 110.447C49.9745 109.778 50.4216 109.257 50.9943 108.884C51.5707 108.507 52.2432 108.318 53.0118 108.318C53.4552 108.318 53.8931 108.392 54.3254 108.54C54.7577 108.688 55.1512 108.928 55.5059 109.26C55.8607 109.589 56.1433 110.025 56.354 110.568C56.5646 111.112 56.6699 111.78 56.6699 112.575V113.129H50.1075V111.998H55.3397C55.3397 111.518 55.2436 111.089 55.0515 110.713C54.863 110.336 54.5933 110.038 54.2422 109.82C53.8949 109.602 53.4848 109.493 53.0118 109.493C52.4908 109.493 52.04 109.623 51.6594 109.881C51.2825 110.136 50.9925 110.469 50.7892 110.879C50.586 111.289 50.4844 111.729 50.4844 112.198V112.952C50.4844 113.595 50.5952 114.14 50.8169 114.587C51.0423 115.03 51.3546 115.368 51.7536 115.601C52.1527 115.83 52.6164 115.945 53.1448 115.945C53.4885 115.945 53.7988 115.897 54.076 115.801C54.3568 115.701 54.5988 115.553 54.802 115.357C55.0053 115.158 55.1623 114.91 55.2732 114.615L56.5369 114.969C56.4038 115.398 56.1803 115.775 55.8662 116.1C55.5521 116.421 55.1642 116.673 54.7023 116.854C54.2404 117.031 53.7212 117.12 53.1448 117.12ZM58.6597 116.942V108.429H59.9234V109.715H60.012C60.1672 109.294 60.4481 108.952 60.8545 108.69C61.261 108.427 61.7192 108.296 62.2291 108.296C62.3251 108.296 62.4452 108.298 62.5893 108.302C62.7334 108.305 62.8424 108.311 62.9163 108.318V109.648C62.872 109.637 62.7704 109.621 62.6115 109.598C62.4563 109.573 62.2919 109.56 62.1182 109.56C61.7044 109.56 61.3349 109.647 61.0097 109.82C60.6882 109.99 60.4333 110.227 60.2448 110.53C60.0601 110.829 59.9677 111.171 59.9677 111.555V116.942H58.6597ZM69.6991 120.135C69.4774 120.135 69.2797 120.116 69.106 120.079C68.9323 120.046 68.8122 120.013 68.7457 119.98L69.0783 118.827C69.3961 118.908 69.6769 118.938 69.9208 118.916C70.1646 118.893 70.3808 118.784 70.5692 118.589C70.7614 118.396 70.9369 118.084 71.0958 117.652L71.3397 116.987L68.1915 108.429H69.6104L71.9604 115.213H72.0491L74.3991 108.429H75.818L72.2043 118.184C72.0417 118.624 71.8403 118.988 71.6002 119.276C71.36 119.568 71.081 119.784 70.7632 119.924C70.4491 120.065 70.0944 120.135 69.6991 120.135ZM80.6983 117.12C79.9297 117.12 79.2553 116.937 78.6752 116.571C78.0988 116.205 77.648 115.693 77.3228 115.036C77.0014 114.378 76.8406 113.609 76.8406 112.73C76.8406 111.843 77.0014 111.069 77.3228 110.408C77.648 109.746 78.0988 109.233 78.6752 108.867C79.2553 108.501 79.9297 108.318 80.6983 108.318C81.4668 108.318 82.1393 108.501 82.7158 108.867C83.2959 109.233 83.7467 109.746 84.0681 110.408C84.3933 111.069 84.5559 111.843 84.5559 112.73C84.5559 113.609 84.3933 114.378 84.0681 115.036C83.7467 115.693 83.2959 116.205 82.7158 116.571C82.1393 116.937 81.4668 117.12 80.6983 117.12ZM80.6983 115.945C81.2821 115.945 81.7624 115.795 82.1393 115.496C82.5162 115.196 82.7952 114.803 82.9763 114.315C83.1573 113.827 83.2478 113.299 83.2478 112.73C83.2478 112.161 83.1573 111.631 82.9763 111.139C82.7952 110.648 82.5162 110.251 82.1393 109.948C81.7624 109.645 81.2821 109.493 80.6983 109.493C80.1144 109.493 79.6341 109.645 79.2572 109.948C78.8803 110.251 78.6013 110.648 78.4203 111.139C78.2392 111.631 78.1487 112.161 78.1487 112.73C78.1487 113.299 78.2392 113.827 78.4203 114.315C78.6013 114.803 78.8803 115.196 79.2572 115.496C79.6341 115.795 80.1144 115.945 80.6983 115.945ZM91.9178 113.462V108.429H93.2258V116.942H91.9178V115.501H91.8291C91.6296 115.934 91.3192 116.301 90.898 116.604C90.4767 116.904 89.9446 117.053 89.3017 117.053C88.7696 117.053 88.2966 116.937 87.8828 116.704C87.469 116.468 87.1438 116.113 86.9073 115.64C86.6708 115.163 86.5526 114.563 86.5526 113.839V108.429H87.8606V113.75C87.8606 114.371 88.0343 114.866 88.3816 115.235C88.7327 115.605 89.1798 115.79 89.7229 115.79C90.0481 115.79 90.3788 115.706 90.715 115.54C91.055 115.374 91.3395 115.119 91.5686 114.775C91.8014 114.432 91.9178 113.994 91.9178 113.462ZM95.6216 116.942V108.429H96.8853V109.715H96.974C97.1292 109.294 97.41 108.952 97.8165 108.69C98.2229 108.427 98.6811 108.296 99.191 108.296C99.2871 108.296 99.4072 108.298 99.5513 108.302C99.6954 108.305 99.8044 108.311 99.8783 108.318V109.648C99.8339 109.637 99.7323 109.621 99.5734 109.598C99.4183 109.573 99.2538 109.56 99.0802 109.56C98.6663 109.56 98.2968 109.647 97.9716 109.82C97.6502 109.99 97.3952 110.227 97.2068 110.53C97.022 110.829 96.9296 111.171 96.9296 111.555V116.942H95.6216ZM107.127 105.591V116.942H105.819V105.591H107.127ZM113.092 117.12C112.271 117.12 111.564 116.939 110.969 116.577C110.378 116.211 109.921 115.701 109.6 115.047C109.282 114.389 109.123 113.624 109.123 112.752C109.123 111.88 109.282 111.112 109.6 110.447C109.921 109.778 110.368 109.257 110.941 108.884C111.518 108.507 112.19 108.318 112.959 108.318C113.402 108.318 113.84 108.392 114.272 108.54C114.705 108.688 115.098 108.928 115.453 109.26C115.808 109.589 116.09 110.025 116.301 110.568C116.512 111.112 116.617 111.78 116.617 112.575V113.129H110.054V111.998H115.287C115.287 111.518 115.191 111.089 114.998 110.713C114.81 110.336 114.54 110.038 114.189 109.82C113.842 109.602 113.432 109.493 112.959 109.493C112.438 109.493 111.987 109.623 111.606 109.881C111.229 110.136 110.939 110.469 110.736 110.879C110.533 111.289 110.431 111.729 110.431 112.198V112.952C110.431 113.595 110.542 114.14 110.764 114.587C110.989 115.03 111.301 115.368 111.701 115.601C112.1 115.83 112.563 115.945 113.092 115.945C113.435 115.945 113.746 115.897 114.023 115.801C114.304 115.701 114.546 115.553 114.749 115.357C114.952 115.158 115.109 114.91 115.22 114.615L116.484 114.969C116.351 115.398 116.127 115.775 115.813 116.1C115.499 116.421 115.111 116.673 114.649 116.854C114.187 117.031 113.668 117.12 113.092 117.12ZM121.112 117.142C120.572 117.142 120.083 117.04 119.643 116.837C119.203 116.63 118.854 116.333 118.596 115.945C118.337 115.553 118.208 115.08 118.208 114.526C118.208 114.038 118.304 113.643 118.496 113.34C118.688 113.033 118.945 112.793 119.266 112.619C119.588 112.446 119.942 112.316 120.33 112.231C120.722 112.143 121.116 112.072 121.511 112.021C122.028 111.954 122.448 111.904 122.769 111.871C123.094 111.834 123.331 111.773 123.478 111.688C123.63 111.603 123.706 111.455 123.706 111.245V111.2C123.706 110.653 123.556 110.228 123.257 109.926C122.961 109.623 122.512 109.471 121.91 109.471C121.285 109.471 120.796 109.608 120.441 109.881C120.086 110.155 119.837 110.447 119.693 110.757L118.451 110.313C118.673 109.796 118.969 109.393 119.338 109.105C119.711 108.813 120.118 108.61 120.558 108.496C121.001 108.377 121.437 108.318 121.866 108.318C122.139 108.318 122.453 108.351 122.808 108.418C123.166 108.481 123.512 108.612 123.844 108.811C124.181 109.011 124.46 109.312 124.681 109.715C124.903 110.118 125.014 110.657 125.014 111.333V116.942H123.706V115.79H123.639C123.551 115.974 123.403 116.172 123.196 116.383C122.989 116.593 122.714 116.772 122.37 116.92C122.026 117.068 121.607 117.142 121.112 117.142ZM121.311 115.967C121.829 115.967 122.265 115.865 122.619 115.662C122.978 115.459 123.248 115.196 123.429 114.875C123.613 114.554 123.706 114.215 123.706 113.861V112.664C123.65 112.73 123.528 112.791 123.34 112.846C123.155 112.898 122.941 112.944 122.697 112.985C122.457 113.022 122.222 113.055 121.993 113.085C121.768 113.111 121.585 113.133 121.444 113.151C121.104 113.196 120.787 113.268 120.491 113.367C120.199 113.464 119.963 113.609 119.782 113.805C119.604 113.997 119.516 114.26 119.516 114.592C119.516 115.047 119.684 115.39 120.02 115.623C120.36 115.852 120.79 115.967 121.311 115.967ZM130.616 117.12C129.906 117.12 129.28 116.941 128.737 116.582C128.194 116.22 127.769 115.71 127.462 115.052C127.156 114.391 127.002 113.609 127.002 112.708C127.002 111.814 127.156 111.038 127.462 110.38C127.769 109.722 128.196 109.214 128.743 108.856C129.289 108.497 129.921 108.318 130.638 108.318C131.192 108.318 131.63 108.411 131.952 108.595C132.277 108.776 132.524 108.983 132.694 109.216C132.868 109.445 133.003 109.634 133.099 109.781H133.21V105.591H134.518V116.942H133.254V115.634H133.099C133.003 115.79 132.866 115.985 132.689 116.222C132.511 116.455 132.258 116.663 131.93 116.848C131.601 117.029 131.163 117.12 130.616 117.12ZM130.793 115.945C131.318 115.945 131.761 115.808 132.124 115.535C132.486 115.257 132.761 114.875 132.949 114.387C133.138 113.896 133.232 113.329 133.232 112.686C133.232 112.05 133.14 111.494 132.955 111.017C132.77 110.537 132.497 110.164 132.135 109.898C131.772 109.628 131.325 109.493 130.793 109.493C130.239 109.493 129.777 109.635 129.408 109.92C129.042 110.201 128.767 110.583 128.582 111.067C128.401 111.548 128.31 112.087 128.31 112.686C128.31 113.292 128.403 113.842 128.587 114.337C128.776 114.829 129.053 115.22 129.419 115.512C129.788 115.801 130.246 115.945 130.793 115.945ZM143.125 110.336L141.95 110.668C141.877 110.472 141.768 110.282 141.623 110.097C141.483 109.909 141.291 109.754 141.047 109.632C140.803 109.51 140.491 109.449 140.11 109.449C139.589 109.449 139.155 109.569 138.808 109.809C138.464 110.046 138.292 110.347 138.292 110.713C138.292 111.038 138.411 111.295 138.647 111.483C138.884 111.671 139.253 111.828 139.756 111.954L141.019 112.264C141.78 112.449 142.348 112.732 142.721 113.112C143.094 113.489 143.281 113.975 143.281 114.57C143.281 115.058 143.14 115.494 142.859 115.878C142.582 116.262 142.194 116.565 141.695 116.787C141.197 117.009 140.617 117.12 139.955 117.12C139.087 117.12 138.368 116.931 137.799 116.554C137.23 116.178 136.87 115.627 136.718 114.903L137.96 114.592C138.078 115.051 138.302 115.394 138.63 115.623C138.963 115.852 139.397 115.967 139.933 115.967C140.543 115.967 141.027 115.838 141.385 115.579C141.747 115.317 141.928 115.002 141.928 114.637C141.928 114.341 141.825 114.094 141.618 113.894C141.411 113.691 141.093 113.539 140.665 113.439L139.246 113.107C138.466 112.922 137.893 112.636 137.527 112.248C137.165 111.856 136.984 111.367 136.984 110.779C136.984 110.299 137.119 109.874 137.389 109.504C137.662 109.135 138.034 108.845 138.503 108.634C138.976 108.423 139.512 108.318 140.11 108.318C140.953 108.318 141.614 108.503 142.095 108.872C142.579 109.242 142.922 109.73 143.125 110.336ZM151.568 116.942L148.974 108.429H150.349L152.189 114.947H152.278L154.096 108.429H155.492L157.288 114.925H157.377L159.217 108.429H160.591L157.998 116.942H156.712L154.849 110.402H154.716L152.854 116.942H151.568ZM162.321 116.942V108.429H163.629V116.942H162.321ZM162.986 107.01C162.731 107.01 162.511 106.923 162.326 106.75C162.145 106.576 162.055 106.367 162.055 106.123C162.055 105.879 162.145 105.671 162.326 105.497C162.511 105.323 162.731 105.237 162.986 105.237C163.241 105.237 163.459 105.323 163.64 105.497C163.825 105.671 163.917 105.879 163.917 106.123C163.917 106.367 163.825 106.576 163.64 106.75C163.459 106.923 163.241 107.01 162.986 107.01ZM169.727 108.429V109.538H165.315V108.429H169.727ZM166.601 106.389H167.909V114.504C167.909 114.873 167.963 115.15 168.07 115.335C168.181 115.516 168.321 115.638 168.491 115.701C168.665 115.76 168.848 115.79 169.04 115.79C169.184 115.79 169.302 115.782 169.394 115.767C169.487 115.749 169.561 115.734 169.616 115.723L169.882 116.898C169.793 116.931 169.67 116.965 169.511 116.998C169.352 117.035 169.151 117.053 168.907 117.053C168.537 117.053 168.175 116.974 167.82 116.815C167.469 116.656 167.177 116.414 166.945 116.089C166.716 115.764 166.601 115.354 166.601 114.858V106.389ZM173.186 111.821V116.942H171.877V105.591H173.186V109.759H173.296C173.496 109.32 173.795 108.97 174.194 108.712C174.597 108.449 175.133 108.318 175.802 108.318C176.382 108.318 176.89 108.435 177.326 108.667C177.762 108.896 178.1 109.249 178.34 109.726C178.584 110.199 178.706 110.801 178.706 111.533V116.942H177.398V111.622C177.398 110.945 177.222 110.422 176.871 110.053C176.524 109.68 176.042 109.493 175.425 109.493C174.996 109.493 174.612 109.584 174.272 109.765C173.936 109.946 173.67 110.21 173.474 110.557C173.282 110.905 173.186 111.326 173.186 111.821ZM186.132 116.942H184.691L188.859 105.591H190.277L194.445 116.942H193.004L189.612 107.387H189.524L186.132 116.942ZM186.664 112.508H192.472V113.728H186.664V112.508ZM197.588 105.591V116.942H196.213V105.591H197.588Z" fill="white" fill-opacity="0.8"/>
</svg>
