<svg width="19" height="20" viewBox="0 0 19 20" fill="none" xmlns="http://www.w3.org/2000/svg">
<g id="game-icons:progression">
<path id="Vector" d="M16.2261 2L11.4733 3.78472L13.1791 4.86006C10.132 8.69712 5.7242 11.0606 2 11.9602L3.05503 13.882C7.23968 12.5181 11.67 10.0578 14.5236 5.71131L15.8231 6.53031L16.2261 2ZM16.4744 5.7629L16.3196 7.52988L14.6655 6.48517C14.6075 6.57223 14.5462 6.65606 14.485 6.74312V17.0484H17V5.7629H16.4744ZM11.6184 9.89015C11.2089 10.2448 10.7865 10.5802 10.3577 10.8962V17.0484H12.8727V9.89015H11.6184ZM7.62984 12.5987C7.16552 12.8437 6.7012 13.0694 6.23044 13.2822V17.0484H8.74549V12.5987H7.62984ZM2.10318 14.0174V17.0484H4.61823V14.0174H4.43508C3.95722 14.1948 3.47969 14.3592 3.00505 14.5107L2.77741 14.5817L2.46786 14.0174H2.10318Z" fill="#393939"/>
</g>
</svg>
