<svg width="14" height="14" viewBox="0 0 14 14" fill="none" xmlns="http://www.w3.org/2000/svg">
<g id="ic:baseline-discount">
<path id="Vector" d="M7.46083 12.2504L1.75 6.53955V7.70622C1.75 8.01538 1.8725 8.31288 2.09417 8.52872L6.63833 13.0729C7.09333 13.5279 7.83417 13.5279 8.28917 13.0729L11.9117 9.45038C12.3667 8.99538 12.3667 8.25455 11.9117 7.79955L7.46083 12.2504Z" fill="#FF5C00"/>
<path id="Vector_2" d="M6.63833 10.1558C7.09333 10.6108 7.83417 10.6108 8.28917 10.1558L11.9117 6.53333C12.3667 6.07833 12.3667 5.3375 11.9117 4.8825L7.3675 0.338333C7.14592 0.122093 6.84878 0.00072644 6.53917 0L2.91667 0C2.275 0 1.75 0.525 1.75 1.16667V4.78917C1.75 5.09833 1.8725 5.39583 2.09417 5.61167L6.63833 10.1558ZM4.22917 1.75C4.42255 1.75 4.60802 1.82682 4.74477 1.96357C4.88151 2.10031 4.95833 2.28578 4.95833 2.47917C4.95833 2.67255 4.88151 2.85802 4.74477 2.99477C4.60802 3.13151 4.42255 3.20833 4.22917 3.20833C4.03578 3.20833 3.85031 3.13151 3.71357 2.99477C3.57682 2.85802 3.5 2.67255 3.5 2.47917C3.5 2.28578 3.57682 2.10031 3.71357 1.96357C3.85031 1.82682 4.03578 1.75 4.22917 1.75Z" fill="#FF5C00"/>
</g>
</svg>
