<svg width="19" height="19" viewBox="0 0 19 19" fill="none" xmlns="http://www.w3.org/2000/svg">
<g id="Icon/Reports" clip-path="url(#clip0_5656_8051)">
<g id="Group">
<path id="Vector" d="M5.57895 2.78949H3.78947C3.31488 2.78949 2.85972 2.97802 2.52412 3.31361C2.18853 3.64921 2 4.10437 2 4.57896V15.3158C2 15.7904 2.18853 16.2456 2.52412 16.5812C2.85972 16.9167 3.31488 17.1053 3.78947 17.1053H8.88679M14.5263 10.8421V14.4211H18.1053M14.5263 8.15791V4.57896C14.5263 4.10437 14.3378 3.64921 14.0022 3.31361C13.6666 2.97802 13.2114 2.78949 12.7368 2.78949H10.9474" stroke="#393939" stroke-width="1.78947" stroke-linecap="round" stroke-linejoin="round"/>
<path id="Vector_2" d="M5.5791 8.15789H9.15805M5.5791 11.7368H8.26331M5.5791 2.78947C5.5791 2.31488 5.76764 1.85972 6.10323 1.52412C6.43882 1.18853 6.89398 1 7.36858 1H9.15805C9.63265 1 10.0878 1.18853 10.4234 1.52412C10.759 1.85972 10.9475 2.31488 10.9475 2.78947C10.9475 3.26407 10.759 3.71923 10.4234 4.05482C10.0878 4.39041 9.63265 4.57895 9.15805 4.57895H7.36858C6.89398 4.57895 6.43882 4.39041 6.10323 4.05482C5.76764 3.71923 5.5791 3.26407 5.5791 2.78947ZM10.9475 14.4211C10.9475 15.3702 11.3246 16.2806 11.9958 16.9517C12.667 17.6229 13.5773 18 14.5265 18C15.4757 18 16.386 17.6229 17.0572 16.9517C17.7283 16.2806 18.1054 15.3702 18.1054 14.4211C18.1054 13.4719 17.7283 12.5615 17.0572 11.8904C16.386 11.2192 15.4757 10.8421 14.5265 10.8421C13.5773 10.8421 12.667 11.2192 11.9958 11.8904C11.3246 12.5615 10.9475 13.4719 10.9475 14.4211Z" stroke="#393939" stroke-width="1.78947" stroke-linecap="round" stroke-linejoin="round"/>
</g>
</g>
<defs>
<clipPath id="clip0_5656_8051">
<rect width="19" height="19" fill="white" transform="translate(19) rotate(90)"/>
</clipPath>
</defs>
</svg>
