<svg width="25" height="24" viewBox="0 0 25 24" fill="none" xmlns="http://www.w3.org/2000/svg">
<g id="map:beauty-salon" clip-path="url(#clip0_1731_16843)">
<path id="Vector" d="M18.3423 2.3825H14.7875C14.1451 2.38455 14.1692 3.34192 14.7875 3.3363H18.3423V3.82572H14.7875C14.1487 3.8201 14.1722 4.77696 14.7875 4.77951H18.3423V5.27968H14.7875C14.1487 5.27968 14.1722 6.23603 14.7875 6.23347H18.3423V6.71011H14.7875C14.162 6.71471 14.1722 7.67209 14.7875 7.67515H18.3423V8.15282H14.7875C14.162 8.15077 14.1595 9.10661 14.7875 9.10661H18.3423V9.58325H14.7875C14.162 9.58529 14.1595 10.5422 14.7875 10.5376H18.3423V11.026H14.7875C14.162 11.0203 14.1595 11.9762 14.7875 11.9797H18.3423V12.4554H14.7875C14.162 12.4549 14.1722 13.4127 14.7875 13.4097H18.3423V22.6965C18.3444 24.1116 20.4939 24.086 20.5 22.6965V0.963834C20.4939 0.317403 19.963 -0.49984 19.0895 -0.502398H14.7875C14.1451 -0.501886 14.1692 0.455486 14.7875 0.451394L18.3423 0.463157V0.938774H14.7875C14.1462 0.935706 14.1702 1.89257 14.7875 1.89308H18.3423V2.3825ZM14.543 18.8471C14.541 17.1952 12.8288 15.4185 10.7831 16.5692V10.2512L9.46005 -0.168954C9.43243 -0.444608 9.19872 -0.509557 9.04171 -0.51416C8.87959 -0.509557 8.55484 -0.444608 8.51955 -0.168954L7.20317 10.2512V16.5692C5.1575 15.4185 3.50051 17.2064 3.5 18.8343C3.50051 20.2826 4.6154 21.4722 6.12408 21.4686C7.64401 21.4722 8.73742 20.1389 8.73742 18.8343V12.2713H9.24883V18.8343C9.24883 20.2949 10.3801 21.376 11.6371 21.4445C11.6162 22.2454 11.8775 23.3879 12.3695 23.841C12.9464 24.3729 13.6332 23.6927 13.3514 23.1389C13.0793 22.6234 12.8124 22.318 13.0292 21.1924C13.9355 20.773 14.541 19.8903 14.543 18.8471ZM6.18238 20.1466C5.83753 20.1466 5.50679 20.0096 5.26295 19.7657C5.0191 19.5219 4.8821 19.1911 4.8821 18.8463C4.8821 18.5014 5.0191 18.1707 5.26295 17.9268C5.50679 17.683 5.83753 17.546 6.18238 17.546C6.8912 17.5501 7.46859 18.1316 7.47371 18.8471C7.47225 19.1898 7.33599 19.5183 7.09436 19.7614C6.85274 20.0046 6.52515 20.1429 6.18238 20.1466ZM10.5657 18.8471C10.5669 18.5039 10.7031 18.1751 10.9449 17.9316C11.1866 17.6882 11.5145 17.5496 11.8576 17.546C12.2008 17.5491 12.5289 17.6875 12.7707 17.9311C13.0125 18.1747 13.1484 18.5038 13.1489 18.8471C13.1484 19.1901 13.0124 19.5191 12.7706 19.7625C12.5288 20.0058 12.2006 20.1439 11.8576 20.1466C11.5146 20.1435 11.1866 20.0053 10.9448 19.7621C10.703 19.5188 10.5668 19.1901 10.5657 18.8471Z" fill="#393939"/>
</g>
<defs>
<clipPath id="clip0_1731_16843">
<rect width="24" height="24" fill="white" transform="translate(0.5)"/>
</clipPath>
</defs>
</svg>
