<svg width="44" height="44" viewBox="0 0 44 44" fill="none" xmlns="http://www.w3.org/2000/svg">
<g id="clarity:success-standard-solid" clip-path="url(#clip0_1834_2595)">
<path id="Vector" d="M22 3.00049C18.2422 3.00049 14.5687 4.11482 11.4442 6.20257C8.31964 8.29031 5.88436 11.2577 4.4463 14.7295C3.00823 18.2013 2.63197 22.0216 3.36509 25.7072C4.09821 29.3928 5.90778 32.7783 8.56498 35.4355C11.2222 38.0927 14.6077 39.9023 18.2933 40.6354C21.9789 41.3685 25.7992 40.9923 29.271 39.5542C32.7428 38.1161 35.7102 35.6809 37.7979 32.5563C39.8857 29.4318 41 25.7583 41 22.0005C41 16.9614 38.9982 12.1287 35.435 8.56546C31.8718 5.00227 27.0391 3.00049 22 3.00049ZM34.4094 15.6236L18.8056 31.2155L9.59063 22.0005C9.27569 21.6855 9.09875 21.2584 9.09875 20.813C9.09875 20.3676 9.27569 19.9404 9.59063 19.6255C9.90558 19.3105 10.3327 19.1336 10.7781 19.1336C11.2235 19.1336 11.6507 19.3105 11.9656 19.6255L18.8294 26.4892L32.0581 13.2724C32.2141 13.1164 32.3992 12.9927 32.603 12.9083C32.8067 12.8239 33.0251 12.7805 33.2456 12.7805C33.4662 12.7805 33.6846 12.8239 33.8883 12.9083C34.0921 12.9927 34.2772 13.1164 34.4331 13.2724C34.5891 13.4283 34.7128 13.6134 34.7972 13.8172C34.8816 14.0209 34.925 14.2393 34.925 14.4599C34.925 14.6804 34.8816 14.8988 34.7972 15.1025C34.7128 15.3063 34.5891 15.4914 34.4331 15.6474L34.4094 15.6236Z" fill="#35A01A"/>
</g>
<defs>
<clipPath id="clip0_1834_2595">
<rect width="42.75" height="42.75" fill="white" transform="translate(0.625 0.625)"/>
</clipPath>
</defs>
</svg>
