<svg width="51" height="50" viewBox="0 0 51 50" fill="none" xmlns="http://www.w3.org/2000/svg">
<g id="Social Media / Twitter">
<rect id="Logo Container" x="0.953125" width="49.5237" height="49.5237" rx="10.8175" fill="#33CCFF"/>
<g id="Capa 2">
<g id="ELEMENTS">
<path id="Vector" d="M38.0063 16.9215C37.1886 17.2737 36.3289 17.519 35.4485 17.6512C35.8601 17.5806 36.4658 16.8391 36.7068 16.5389C37.0731 16.0862 37.3522 15.5694 37.53 15.0147C37.53 14.9735 37.5712 14.9147 37.53 14.8852C37.5093 14.8739 37.486 14.868 37.4624 14.868C37.4388 14.868 37.4155 14.8739 37.3948 14.8852C36.4388 15.4034 35.4214 15.7988 34.3666 16.0622C34.3299 16.0735 34.2908 16.0745 34.2535 16.0652C34.2162 16.0558 34.1821 16.0365 34.155 16.0093C34.0729 15.9114 33.9845 15.819 33.8904 15.7327C33.4602 15.3469 32.9721 15.0311 32.4439 14.797C31.731 14.5042 30.961 14.3774 30.192 14.4262C29.4458 14.4734 28.7172 14.6737 28.0517 15.0147C27.3963 15.3742 26.8203 15.8627 26.3583 16.4507C25.8723 17.0559 25.5215 17.7582 25.3293 18.5104C25.1709 19.226 25.1529 19.9655 25.2764 20.6879C25.2764 20.8115 25.2764 20.8292 25.1706 20.8115C20.9782 20.1936 17.5385 18.7046 14.728 15.5091C14.6045 15.3678 14.5398 15.3678 14.4399 15.5091C13.2168 17.3687 13.8107 20.3113 15.3395 21.7649C15.5453 21.9591 15.7569 22.1474 15.9804 22.324C15.2794 22.2742 14.5956 22.084 13.9695 21.7649C13.8519 21.6884 13.7872 21.7296 13.7813 21.8708C13.7646 22.0666 13.7646 22.2635 13.7813 22.4593C13.904 23.3978 14.2735 24.2867 14.852 25.0354C15.4306 25.784 16.1974 26.3654 17.074 26.7201C17.2877 26.8117 17.5104 26.8808 17.7384 26.9261C17.0896 27.054 16.424 27.0738 15.7687 26.9849C15.6276 26.9555 15.5747 27.032 15.6276 27.1674C16.4919 29.5214 18.3676 30.2394 19.7435 30.6396C19.9316 30.669 20.1198 30.669 20.3315 30.7161C20.3315 30.7161 20.3315 30.7161 20.2962 30.7514C19.8905 31.4929 18.25 31.9931 17.4974 32.2521C16.1236 32.746 14.659 32.9347 13.2051 32.8053C12.9758 32.77 12.9229 32.7759 12.8641 32.8053C12.8053 32.8347 12.8641 32.8994 12.9287 32.9583C13.2227 33.1525 13.5167 33.3232 13.8225 33.4879C14.7327 33.9849 15.695 34.3796 16.6918 34.665C21.8543 36.0892 27.6636 35.0416 31.5384 31.1869C34.5842 28.162 35.6543 23.9894 35.6543 19.811C35.6543 19.6521 35.8484 19.558 35.9601 19.4756C36.7306 18.8747 37.41 18.165 37.9769 17.3687C38.0751 17.25 38.1254 17.0989 38.118 16.945C38.118 16.8567 38.118 16.8744 38.0063 16.9215Z" fill="white"/>
</g>
</g>
</g>
</svg>
